<svg xmlns="http://www.w3.org/2000/svg" xmlns:xlink="http://www.w3.org/1999/xlink" fill="none" version="1.1" width="437.11962890625" height="79.39901733398438" viewBox="0 0 437.11962890625 79.39901733398438"><g><path d="M30.2131,0Q29.4714,0,28.7306,0.036393Q27.9898,0.072786,27.2517,0.145484Q26.5136,0.218183,25.7799,0.327011Q25.0463,0.43584,24.3188,0.580536Q23.5914,0.725233,22.8719,0.905448Q22.1525,1.08566,21.4427,1.30097Q20.7329,1.51627,20.0346,1.76613Q19.3363,2.016,18.651,2.29983Q17.9658,2.58367,17.2953,2.90078Q16.6249,3.21789,15.9707,3.56752Q15.3166,3.91715,14.6805,4.29846Q14.0443,4.67976,13.4276,5.09182Q12.8109,5.50388,12.2152,5.94571Q11.6194,6.38753,11.0461,6.85806Q10.4728,7.32858,9.92322,7.82667Q9.37366,8.32476,8.84921,8.84921Q8.32476,9.37366,7.82667,9.92322Q7.32858,10.4728,6.85806,11.0461Q6.38753,11.6194,5.94571,12.2152Q5.50388,12.8109,5.09182,13.4276Q4.67976,14.0443,4.29846,14.6805Q3.91715,15.3166,3.56752,15.9707Q3.21789,16.6249,2.90078,17.2953Q2.58367,17.9658,2.29983,18.651Q2.016,19.3363,1.76613,20.0346Q1.51627,20.7329,1.30097,21.4427Q1.08566,22.1524,0.905448,22.8719Q0.725233,23.5914,0.580536,24.3188Q0.43584,25.0463,0.327011,25.7799Q0.218183,26.5136,0.145484,27.2517Q0.072786,27.9898,0.036393,28.7306Q0,29.4714,0,30.2131Q0,30.9548,0.036393,31.6956Q0.072786,32.4364,0.145484,33.1745Q0.218183,33.9126,0.327011,34.6463Q0.43584,35.3799,0.580536,36.1074Q0.725233,36.8348,0.905448,37.5543Q1.08566,38.2737,1.30097,38.9835Q1.51627,39.6932,1.76613,40.3916Q2.016,41.0899,2.29983,41.7751Q2.58367,42.4604,2.90078,43.1309Q3.21789,43.8013,3.56752,44.4555Q3.91715,45.1096,4.29846,45.7457Q4.67976,46.3819,5.09182,46.9986Q5.50388,47.6153,5.94571,48.211Q6.38753,48.8067,6.85806,49.3801Q7.32858,49.9534,7.82667,50.503Q8.32476,51.0525,8.84921,51.577Q9.37366,52.1014,9.92322,52.5995Q10.4728,53.0976,11.0461,53.5681Q11.6194,54.0387,12.2152,54.4805Q12.8109,54.9223,13.4276,55.3344Q14.0443,55.7464,14.6805,56.1277Q15.3166,56.509,15.9707,56.8587Q16.6249,57.2083,17.2953,57.5254Q17.9658,57.8425,18.651,58.1264Q19.3363,58.4102,20.0346,58.6601Q20.7329,58.9099,21.4427,59.1252Q22.1524,59.3405,22.8719,59.5207Q23.5914,59.701,24.3188,59.8457Q25.0463,59.9904,25.7799,60.0992Q26.5136,60.208,27.2517,60.2807Q27.9898,60.3534,28.7306,60.3898Q29.4714,60.4262,30.2131,60.4262L378.423,60.4262L431.975,79.1714C435.343,80.3504,438.368,76.7164,436.597,73.6181L425.567,54.3127C425.473,54.1481,425.368,53.9921,425.253,53.8455Q425.916,53.317,426.549,52.7521Q427.182,52.1873,427.782,51.5878Q428.382,50.9883,428.948,50.3561Q429.513,49.7238,430.042,49.0609Q430.571,48.3979,431.062,47.7063Q431.554,47.0147,432.005,46.2967Q432.457,45.5786,432.867,44.8363Q433.278,44.0941,433.646,43.3299Q434.014,42.5658,434.339,41.7822Q434.664,40.9986,434.944,40.198Q435.225,39.3974,435.46,38.5824Q435.695,37.7673,435.883,36.9404Q436.072,36.1134,436.214,35.2772Q436.357,34.441,436.452,33.5981Q436.547,32.7552,436.594,31.9082Q436.642,31.0613,436.642,30.2131Q436.642,29.4714,436.606,28.7306Q436.569,27.9898,436.496,27.2517Q436.424,26.5136,436.315,25.7799Q436.206,25.0463,436.061,24.3188Q435.917,23.5914,435.736,22.8719Q435.556,22.1525,435.341,21.4427Q435.126,20.7329,434.876,20.0346Q434.626,19.3363,434.342,18.651Q434.058,17.9658,433.741,17.2953Q433.424,16.6249,433.074,15.9707Q432.725,15.3166,432.343,14.6805Q431.962,14.0443,431.55,13.4276Q431.138,12.8109,430.696,12.2152Q430.254,11.6194,429.784,11.0461Q429.313,10.4728,428.815,9.92322Q428.317,9.37366,427.793,8.84921Q427.268,8.32476,426.719,7.82667Q426.169,7.32858,425.596,6.85806Q425.022,6.38753,424.427,5.94571Q423.831,5.50388,423.214,5.09182Q422.598,4.67976,421.961,4.29846Q421.325,3.91715,420.671,3.56752Q420.017,3.21789,419.346,2.90078Q418.676,2.58367,417.991,2.29983Q417.306,2.016,416.607,1.76613Q415.909,1.51627,415.199,1.30097Q414.489,1.08566,413.77,0.905448Q413.051,0.725233,412.323,0.580536Q411.596,0.43584,410.862,0.327011Q410.128,0.218183,409.39,0.145484Q408.652,0.072786,407.911,0.036393Q407.171,0,406.429,0L30.2131,0Z" fill-rule="evenodd" fill="#F5F3F3" fill-opacity="1"/><path d="M425.253,53.8455Q425.916,53.317,426.549,52.7521Q427.182,52.1873,427.782,51.5878Q428.382,50.9883,428.948,50.3561Q429.513,49.7238,430.042,49.0609Q430.571,48.3979,431.062,47.7063Q431.554,47.0147,432.005,46.2967Q432.457,45.5786,432.867,44.8363Q433.278,44.0941,433.646,43.3299Q434.014,42.5658,434.339,41.7822Q434.664,40.9986,434.944,40.198Q435.225,39.3974,435.46,38.5824Q435.695,37.7673,435.883,36.9404Q436.072,36.1134,436.214,35.2772Q436.357,34.441,436.452,33.5981Q436.547,32.7552,436.594,31.9082Q436.642,31.0613,436.642,30.2131Q436.642,29.4714,436.606,28.7306Q436.569,27.9898,436.496,27.2517Q436.424,26.5136,436.315,25.7799Q436.206,25.0463,436.061,24.3188Q435.917,23.5914,435.736,22.8719Q435.556,22.1525,435.341,21.4427Q435.126,20.7329,434.876,20.0346Q434.626,19.3363,434.342,18.651Q434.058,17.9658,433.741,17.2953Q433.424,16.6249,433.074,15.9707Q432.725,15.3166,432.343,14.6805Q431.962,14.0443,431.55,13.4276Q431.138,12.8109,430.696,12.2152Q430.254,11.6194,429.784,11.0461Q429.313,10.4728,428.815,9.92322Q428.317,9.37366,427.793,8.84921Q427.268,8.32476,426.719,7.82667Q426.169,7.32858,425.596,6.85806Q425.022,6.38753,424.427,5.94571Q423.831,5.50388,423.214,5.09182Q422.598,4.67976,421.961,4.29846Q421.325,3.91715,420.671,3.56752Q420.017,3.21789,419.346,2.90078Q418.676,2.58367,417.991,2.29983Q417.306,2.016,416.607,1.76613Q415.909,1.51627,415.199,1.30097Q414.489,1.08566,413.77,0.905448Q413.051,0.725233,412.323,0.580536Q411.596,0.43584,410.862,0.327011Q410.128,0.218183,409.39,0.145484Q408.652,0.072786,407.911,0.036393Q407.171,0,406.429,0L30.2131,0Q29.4714,0,28.7306,0.036393Q27.9898,0.072786,27.2517,0.145484Q26.5136,0.218183,25.7799,0.327011Q25.0463,0.43584,24.3188,0.580536Q23.5914,0.725233,22.8719,0.905448Q22.1525,1.08566,21.4427,1.30097Q20.7329,1.51627,20.0346,1.76613Q19.3363,2.016,18.651,2.29983Q17.9658,2.58367,17.2953,2.90078Q16.6249,3.21789,15.9707,3.56752Q15.3166,3.91715,14.6805,4.29846Q14.0443,4.67976,13.4276,5.09182Q12.8109,5.50388,12.2152,5.94571Q11.6194,6.38753,11.0461,6.85806Q10.4728,7.32858,9.92322,7.82667Q9.37366,8.32476,8.84921,8.84921Q8.32476,9.37366,7.82667,9.92322Q7.32858,10.4728,6.85806,11.0461Q6.38753,11.6194,5.94571,12.2152Q5.50388,12.8109,5.09182,13.4276Q4.67976,14.0443,4.29846,14.6805Q3.91715,15.3166,3.56752,15.9707Q3.21789,16.6249,2.90078,17.2953Q2.58367,17.9658,2.29983,18.651Q2.016,19.3363,1.76613,20.0346Q1.51627,20.7329,1.30097,21.4427Q1.08566,22.1524,0.905448,22.8719Q0.725233,23.5914,0.580536,24.3188Q0.43584,25.0463,0.327011,25.7799Q0.218183,26.5136,0.145484,27.2517Q0.072786,27.9898,0.036393,28.7306Q0,29.4714,0,30.2131Q0,30.9548,0.036393,31.6956Q0.072786,32.4364,0.145484,33.1745Q0.218183,33.9126,0.327011,34.6463Q0.43584,35.3799,0.580536,36.1074Q0.725233,36.8348,0.905448,37.5543Q1.08566,38.2737,1.30097,38.9835Q1.51627,39.6932,1.76613,40.3916Q2.016,41.0899,2.29983,41.7751Q2.58367,42.4604,2.90078,43.1309Q3.21789,43.8013,3.56752,44.4555Q3.91715,45.1096,4.29846,45.7457Q4.67976,46.3819,5.09182,46.9986Q5.50388,47.6153,5.94571,48.211Q6.38753,48.8067,6.85806,49.3801Q7.32858,49.9534,7.82667,50.503Q8.32476,51.0525,8.84921,51.577Q9.37366,52.1014,9.92322,52.5995Q10.4728,53.0976,11.0461,53.5681Q11.6194,54.0387,12.2152,54.4805Q12.8109,54.9223,13.4276,55.3344Q14.0443,55.7464,14.6805,56.1277Q15.3166,56.509,15.9707,56.8587Q16.6249,57.2083,17.2953,57.5254Q17.9658,57.8425,18.651,58.1264Q19.3363,58.4102,20.0346,58.6601Q20.7329,58.9099,21.4427,59.1252Q22.1524,59.3405,22.8719,59.5207Q23.5914,59.701,24.3188,59.8457Q25.0463,59.9904,25.7799,60.0992Q26.5136,60.208,27.2517,60.2807Q27.9898,60.3534,28.7306,60.3898Q29.4714,60.4262,30.2131,60.4262L378.423,60.4262L431.975,79.1714C435.343,80.3504,438.368,76.7164,436.597,73.6181L425.567,54.3127C425.473,54.1481,425.368,53.9921,425.253,53.8455ZM19.3284,2.71895Q24.5728,0.642772,30.2131,0.642772L406.429,0.642772Q412.069,0.642772,417.314,2.71895Q423.008,4.97325,427.338,9.30372Q431.669,13.6344,433.923,19.3284Q435.999,24.5729,435.999,30.2131Q435.999,36.9671,433.067,43.0509Q430.135,49.135,424.852,53.3428L424.353,53.7402L424.747,54.2421Q424.892,54.4271,425.009,54.6316L436.039,73.937Q437.146,75.8734,435.719,77.5875Q434.292,79.3016,432.187,78.5648L378.532,59.7834L30.2131,59.7834Q24.5728,59.7834,19.3284,57.7072Q13.6342,55.453,9.30372,51.1225Q4.97323,46.792,2.71895,41.0978Q0.642772,35.8535,0.642772,30.2131Q0.642772,24.5728,2.71895,19.3284Q4.97324,13.6342,9.30372,9.30372Q13.6342,4.97324,19.3284,2.71895Z" fill-rule="evenodd" fill="#D2D2D2" fill-opacity="1"/></g></svg>